<?xml version='1.0' encoding='ASCII' standalone='yes'?>
<svg xmlns="http://www.w3.org/2000/svg" xmlns:xlink="http://www.w3.org/1999/xlink" version="1.1" width="1920.0px" viewBox="0 0 1920.0 1080.0" height="1080.0px">
  <g>
    <g>
      <defs/>
      <rect fill="#FF0058" height="1080px" width="1920px" x="0" y="0"/>
    </g>
    <g transform="translate(819.75, 480.0) scale(1 1)"><g>
    <g transform="translate(0, 0) scale(1.5 1.5)"><title>premier-league/logo/premier-league_secundario</title>
    <g id="premier-league/logo/premier-league_secundario" stroke="none" stroke-width="1" fill="none" fill-rule="evenodd">
        <path d="M18.3641121,17.08963 C23.9037807,14.6389784 29.0951313,13.3537283 36.1401407,13.5043734 C38.1005489,14.3044555 40.3406333,15.8093123 41.4087284,17.7072779 C41.5987255,16.6094244 41.6817027,15.4253463 41.0489,14.2584409 C44.5720208,15.1350635 47.8988934,16.7965503 51.0794664,19.0461514 C51.0306599,21.5331335 51.9114626,23.7102843 52.8961597,25.8520669 C50.0473152,23.2208456 47.1554343,20.761352 44.1005743,18.9545133 C44.0283562,20.5006328 43.7012258,21.8499123 43.0801739,22.9835849 C40.9776736,21.1109424 37.9052023,19.5141166 36.1314553,18.782906 C33.7168813,17.7887808 26.6653203,21.4222174 25.7461094,23.4469486 L25.7461094,23.4469486 L27.7007173,24.0645062 L21.9654617,28.0540294 L25.2063517,28.3628082 L24.794471,30.1645943 L25.5918457,30.0362046 C26.2041821,32.5187357 27.9285215,33.6456715 30.1185972,34.2056057 L30.1185972,34.2056057 L39.6859217,34.2572743 L41.3320624,34.7718555 L41.692011,34.3604312 C40.5308408,32.4114886 38.8844598,30.8353544 36.8310365,29.5729612 C32.3844072,29.8501915 29.300696,29.5360293 27.5982355,27.4107878 C30.6604285,25.0142108 33.4778372,24.4973138 37.499783,27.385134 C38.8016629,27.3621868 39.9281215,26.5787362 41.0235951,25.6607606 C40.3625122,26.7355165 39.8492315,27.8465127 39.7377337,29.0585304 C41.608583,30.37575 43.1468923,31.9963951 44.2637338,33.9998935 C46.8759985,33.1876311 49.8137107,33.0276929 53.1114316,33.5881383 C50.450781,31.2144783 48.2173384,28.9031335 46.5790417,26.3301372 L46.5790417,26.3301372 L49.9740452,28.4148979 C51.8376817,24.3316914 54.098022,29.9217096 52.2884214,30.0871816 C52.7688839,31.1248552 53.4711999,32.0361241 54.499865,32.7641768 C54.8361316,32.2745577 54.9869091,31.6409702 55.014438,30.9112333 C61.6209694,40.374084 63.6510412,50.6690466 59.694792,62.0540732 C59.1573184,60.5611561 58.4153319,59.4960843 57.1230692,59.5831511 C56.231297,68.6059161 51.8771116,75.0108733 45.0865036,79.5041507 C45.0043679,77.8361978 44.7056979,76.2644846 44.0062069,74.8714161 C35.0473118,81.1806148 26.0884167,81.4391084 17.1298522,76.9046585 C19.7343031,70.3687553 19.5665755,64.0852705 17.6439143,57.9616639 C15.1609389,62.379303 11.896457,66.2753835 7.76803223,69.5949286 C4.79786249,62.8453734 4.15406024,55.2742628 5.70998079,47.563334 C3.99561913,49.0046125 1.98965009,49.9830386 -2.34479103e-13,49.7768151 C0.345462929,43.3568506 2.9810791,37.9063799 6.89336037,32.9958135 L6.89336037,32.9958135 L3.18928851,32.4812323 C5.1708242,27.8393549 8.56378408,23.8251101 13.0142302,20.2814471 C12.6547323,25.3087341 13.7339171,28.4148979 16.2547896,29.5986151 C14.7437688,20.7470965 16.3259259,17.0013302 22.6332465,21.0537399 C22.0010748,18.9409495 20.6423642,17.5553696 18.3641121,17.08963 Z M138.810551,51.5705111 C141.980245,51.5705111 143.388934,53.2540729 144.015005,54.1941234 L144.015005,54.1941234 L144.015005,52.1576329 L148.672969,52.1576329 L148.672969,68.5664579 C148.672969,78.7686695 137.006029,80.452141 130.551508,74.9162577 L130.551508,74.9162577 L133.40453,70.9127497 C135.735435,74.7300641 144.015005,74.4065186 144.015005,69.4671404 L144.015005,69.4671404 L144.015005,67.4701082 C143.349835,68.5664579 142.019074,70.0935701 138.810551,70.0935701 C136.11008,70.0935701 134.036461,69.2319248 132.432004,67.6263773 C131.022594,66.1773695 129.88787,64.0624437 129.88787,61.0471662 C129.88787,58.0711064 130.983494,55.6039436 132.471194,54.0768314 C133.527117,52.9803313 135.562659,51.5705111 138.810551,51.5705111 Z M118.002683,51.5705111 C119.43259,51.5705111 121.728904,51.9228684 123.271632,54.1157783 L123.271632,54.1157783 L123.271632,52.1576329 L128.228356,52.1576329 L128.228356,69.6234696 L123.271632,69.6234696 L123.271632,67.5090852 C121.804218,69.8586853 119.696278,70.2111328 118.303487,70.2111328 C115.895675,70.2111328 113.863109,69.5847031 112.018466,67.547942 C110.250519,65.590398 109.572396,63.3183611 109.572396,61.0082794 C109.572396,58.0711064 110.626727,55.5648162 112.169424,53.9588476 C113.637258,52.4316452 115.669223,51.5705111 118.002683,51.5705111 Z M156.284814,52.1576329 L156.284814,61.7910684 C156.284814,62.5744589 156.355951,63.7886119 157.176436,64.6110998 C157.532177,64.9634571 158.173756,65.4334372 159.314279,65.4334372 C160.276857,65.4334372 161.025155,65.0808393 161.488607,64.6110998 C162.236905,63.8278296 162.344165,62.6530446 162.344165,61.7910684 L162.344165,61.7910684 L162.344165,52.1576329 L167.476401,52.1576329 L167.476401,62.3398448 C167.476401,64.3368469 167.298094,66.2165571 165.693938,67.9398477 C163.876313,69.8977225 161.203461,70.2111328 159.314279,70.2111328 C157.354382,70.2111328 154.716993,69.8977225 152.899187,67.9398477 C151.438175,66.3736081 151.152789,64.6110998 151.152789,62.692172 L151.152789,62.692172 L151.152789,52.1576329 L156.284814,52.1576329 Z M98.8141184,51.1722294 C100.634298,51.1722294 103.254497,51.521068 105.256378,53.7691353 C107.186042,55.9399101 107.549387,58.6534764 107.549387,60.7855448 L107.549387,60.7855448 L107.549387,61.3670427 L95.4293932,61.3670427 C95.4293932,62.2977098 95.7530374,63.5407648 96.4125876,64.3131479 C97.2093913,65.2464015 98.3052556,65.3985804 99.1056357,65.3985804 C101.240864,65.3985804 102.290056,64.9057434 103.766064,62.9070269 L103.766064,62.9070269 L106.482193,65.8906656 C105.744204,67.1492994 104.82908,67.9090811 104.164842,68.3447158 C102.600236,69.3525551 100.852816,69.6234696 99.033147,69.6234696 C96.5937791,69.6234696 94.4464091,69.1582714 92.554222,67.1429235 C91.1346834,65.6306382 90.115996,63.3441954 90.115996,60.4753826 C90.115996,57.994656 90.9523799,55.4359754 92.590857,53.652956 C94.5563742,51.5599247 96.9947805,51.1722294 98.8141184,51.1722294 Z M78.1871115,43.5028942 L78.1871115,64.5326945 L88.7055636,64.5326945 L88.7055636,69.6234696 L72.1611501,69.6234696 L72.1611501,43.5028942 L78.1871115,43.5028942 Z M178.264311,51.1722294 C180.08449,51.1722294 182.704719,51.521068 184.706601,53.7691353 C186.635904,55.9399101 187,58.6534764 187,60.7855448 L187,60.7855448 L187,61.3670427 L174.879435,61.3670427 C174.879435,62.2977098 175.20308,63.5407648 175.862449,64.3131479 C176.659253,65.2464015 177.755298,65.3985804 178.555498,65.3985804 C180.691147,65.3985804 181.739917,64.9057434 183.216107,62.9070269 L183.216107,62.9070269 L185.932476,65.8906656 C185.194396,67.1492994 184.279032,67.9090811 183.615064,68.3447158 C182.050098,69.3525551 180.302677,69.6234696 178.483009,69.6234696 C176.044422,69.6234696 173.896932,69.1582714 172.004084,67.1429235 C170.584906,65.6306382 169.565858,63.3441954 169.565858,60.4753826 C169.565858,57.994656 170.402422,55.4359754 172.04108,53.652956 C174.005996,51.5599247 176.444312,51.1722294 178.264311,51.1722294 Z M118.689131,56.4264314 C117.522461,56.4264314 116.430744,56.9352984 115.715385,57.6792908 C115.150833,58.266954 114.474093,59.2854398 114.474093,60.8516795 C114.474093,62.4181898 115.109871,63.4397433 115.602775,63.9844295 C116.351854,64.8104361 117.522461,65.3550922 118.802011,65.3550922 C119.893578,65.3550922 120.899673,64.8756384 121.624379,64.1412098 C122.329941,63.4267209 122.941346,62.3398448 122.941346,60.8516795 C122.941346,59.5986697 122.489314,58.4240652 121.699693,57.6403439 C120.871483,56.8183372 119.667487,56.4264314 118.689131,56.4264314 Z M139.45264,56.2910644 C138.199807,56.2910644 137.06277,56.7590897 136.360634,57.4270528 C135.497743,58.2470745 135.030234,59.620053 135.030234,60.6773354 C135.030234,61.8132336 135.460507,62.9878381 136.243577,63.8100854 C137.025805,64.6324229 138.08278,65.0635463 139.41318,65.0635463 C140.899918,65.0635463 141.882421,64.4796425 142.465576,63.9276481 C143.33024,63.1094008 143.834745,61.8913381 143.834745,60.5993512 C143.834745,59.2284179 143.256459,58.0838281 142.504585,57.3879855 C141.691252,56.6345496 140.469464,56.2910644 139.45264,56.2910644 Z M51.1044408,48.144922 L47.6063544,48.3506342 C45.6099122,50.2920881 43.3538094,51.4113548 40.5080905,52.0571227 L40.5080905,52.0571227 L42.5659616,56.4323261 C44.8594507,56.310162 46.7705414,55.2678869 48.3780034,53.4986418 C48.776781,55.2991648 48.7094014,56.9996887 48.1467131,58.5941386 C51.783736,58.0848506 54.8684089,49.727372 51.1044408,48.144922 L51.1044408,48.144922 Z M178.628677,55.0489417 C177.282168,55.0489417 176.481277,55.6302892 175.971152,56.17281 C175.571293,56.6380383 175.206836,57.2583327 175.061589,58.0334226 L175.061589,58.0334226 L182.158891,58.0334226 C182.122346,57.8784467 181.867975,56.7928638 181.103629,56.0177439 C180.521436,55.4359754 179.68385,55.0489417 178.628677,55.0489417 Z M99.1787253,55.0489417 C97.8319458,55.0489417 97.0312352,55.6302892 96.5212904,56.17281 C96.121401,56.6380383 95.7569744,57.2583327 95.6117267,58.0334226 L95.6117267,58.0334226 L102.709269,58.0334226 C102.672634,57.8784467 102.417662,56.7928638 101.653676,56.0177439 C101.070822,55.4359754 100.233988,55.0489417 99.1787253,55.0489417 Z M45.0595758,36.9610362 C44.5335225,36.3854932 43.5780372,36.5879573 42.8994032,36.9610362 L42.8994032,36.9610362 L35.5947331,40.9757922 C35.103782,41.2464661 34.6903685,41.8398134 34.9267679,42.2633279 L34.9267679,42.2633279 L38.3211704,48.3371005 C38.6961156,49.0080109 39.5493594,49.1877986 40.2758684,48.9546581 C43.4201671,47.9465481 46.1481372,45.9525233 48.5576622,43.2926708 L48.5576622,43.2926708 L48.6086927,39.2775539 C47.2926879,38.7578599 46.0673839,38.064273 45.0595758,36.9610362 Z M54.2423381,37.0514714 L51.3106967,39.3680191 L51.1730224,43.6624114 L54.6026173,48.0158707 C55.9799009,44.1211435 56.2945892,40.3966703 54.2423381,37.0514714 L54.2423381,37.0514714 Z M111.777198,23.1021702 C113.596896,23.1021702 116.217426,23.4510989 118.219578,25.6993767 C120.147949,27.8702117 120.512556,30.583778 120.512556,32.7153352 L120.512556,32.7153352 L120.512556,33.2973443 L108.391992,33.2973443 C108.391992,34.2271694 108.715305,35.4710664 109.374826,36.2429383 C110.171629,37.1767032 111.267524,37.3283708 112.068234,37.3283708 C114.204034,37.3283708 115.252233,36.8355337 116.728062,34.836306 L116.728062,34.836306 L119.445122,37.820456 C118.706772,39.0795409 117.790988,39.8392925 117.12744,40.2745061 C115.562053,41.2823455 113.815053,41.5536209 111.995054,41.5536209 C109.556708,41.5536209 107.409338,41.088573 105.51649,39.0727139 C104.096861,37.5609398 103.077813,35.2739857 103.077813,32.4056842 C103.077813,29.924687 103.915309,27.3663071 105.553035,25.5832576 C107.518191,23.4899857 109.956688,23.1021702 111.777198,23.1021702 Z M166.179269,23.1021702 C167.9999,23.1021702 170.619828,23.4510989 172.62165,25.6993767 C174.550862,27.8702117 174.914958,30.583778 174.914958,32.7153352 L174.914958,32.7153352 L174.914958,33.2973443 L162.794754,33.2973443 C162.794754,34.2271694 163.118399,35.4710664 163.777588,36.2429383 C164.574632,37.1767032 165.669926,37.3283708 166.471237,37.3283708 C168.606105,37.3283708 169.654966,36.8355337 171.130734,34.836306 L171.130734,34.836306 L173.847525,37.820456 C173.109535,39.0795409 172.194412,39.8392925 171.530083,40.2745061 C169.965146,41.2823455 168.217636,41.5536209 166.398058,41.5536209 C163.959381,41.5536209 161.811891,41.088573 159.919223,39.0727139 C158.499864,37.5609398 157.480816,35.2739857 157.480816,32.4056842 C157.480816,29.924687 158.317381,27.3663071 159.956038,25.5832576 C161.921044,23.4899857 164.359601,23.1021702 166.179269,23.1021702 Z M185.452344,23.2573265 C186.01912,23.2573265 186.428296,23.3347392 186.9322,23.5289327 L186.9322,23.5289327 L186.98867,27.7784833 C185.474764,27.2080531 183.459839,27.8795048 182.366409,29.304573 C181.357579,30.620349 181.264564,32.4825857 181.264564,33.9559842 L181.264564,33.9559842 L181.264564,40.9722133 L176.731141,40.9722133 L176.731141,23.6835176 L181.264564,23.6835176 L181.264564,26.3972343 C181.67383,25.4277705 182.303898,24.5362909 183.028003,23.9936498 C183.783724,23.4123324 184.57055,23.2573265 185.452344,23.2573265 Z M155.166951,23.6835176 L155.166951,40.9722133 L150.671034,40.9722133 L150.671034,23.6835176 L155.166951,23.6835176 Z M142.086724,23.2573265 C143.964666,23.2573265 145.49435,23.8775307 146.432644,24.8852196 C147.927647,26.4744666 148.032172,28.8003977 148.032172,30.0409865 L148.032172,30.0409865 L148.032172,40.9722133 L143.02577,40.9722133 L143.025574,32.0248925 C143.022835,31.1159471 142.98175,29.70743 142.365468,28.8392845 C141.948448,28.2579371 141.287636,27.9085873 140.557641,27.9085873 C139.723361,27.9085873 139.027686,28.3353498 138.610697,28.9553736 C137.949854,29.8858302 137.84602,31.2424179 137.84602,32.3668876 L137.84602,32.3668876 L137.84602,40.9722133 L132.839798,40.9722133 L132.839221,31.7589198 C132.832603,30.6483691 132.757247,29.4059987 132.040109,28.6063546 C131.518834,28.0252176 130.892853,27.9085873 130.371248,27.9085873 C129.711187,27.9085873 129.119617,28.1027808 128.632753,28.6063546 C127.694218,29.6142841 127.659867,31.5528207 127.659867,32.1341682 L127.659867,32.1341682 L127.659867,40.9722133 L122.653585,40.9722133 L122.653585,23.6835176 L127.659867,23.6835176 L127.659867,25.6993767 C128.946089,23.5289327 130.82316,23.2573265 132.005457,23.2573265 C132.665939,23.2573265 133.882888,23.3347392 134.925258,24.0324464 C135.725457,24.5362909 136.385939,25.3890641 136.802959,26.4360309 C137.184937,25.7381432 137.776747,24.9240764 138.784825,24.2263993 C139.862237,23.4899857 140.870616,23.2573265 142.086724,23.2573265 Z M100.823574,23.2573265 C101.390019,23.2573265 101.799285,23.3347392 102.303189,23.5289327 L102.303189,23.5289327 L102.35999,27.7784833 C100.846234,27.2080531 98.8309784,27.8795048 97.7375484,29.304573 C96.7282076,30.620349 96.6358838,32.4825857 96.6358838,33.9559842 L96.6358838,33.9559842 L96.6358838,40.9722133 L92.1019495,40.9722133 L92.1019495,23.6835176 L96.6358838,23.6835176 L96.6358838,26.3972343 C97.0451198,25.4277705 97.6746768,24.5362909 98.3989919,23.9936498 C99.1550433,23.4123324 99.9411781,23.2573265 100.823574,23.2573265 Z M81.1602565,14.8081195 C83.3855848,14.8081195 85.8415422,15.1182817 87.8754007,16.9396767 C90.0620503,18.8782133 90.369616,21.4366233 90.369616,23.2195825 C90.369616,26.4760906 89.1417575,28.297666 88.1820047,29.3055053 C86.1485068,31.3987772 83.4626114,31.5925496 81.6586308,31.5925496 L81.6586308,31.5925496 L78.0521721,31.5925496 L78.0521721,40.6635849 L72.1425771,40.6635849 L72.1425771,14.8081195 Z M112.140723,26.9784915 C110.794214,26.9784915 109.993233,27.5600795 109.484129,28.1027808 C109.083218,28.5677384 108.719813,29.1881231 108.573874,29.963243 L108.573874,29.963243 L115.671086,29.963243 C115.635233,29.8083273 115.38026,28.722985 114.615944,27.9475342 C114.033751,27.3663071 113.196226,26.9784915 112.140723,26.9784915 Z M166.543636,26.9784915 C165.197217,26.9784915 164.396236,27.5600795 163.886291,28.1027808 C163.486582,28.5677384 163.121975,29.1881231 162.976637,29.963243 L162.976637,29.963243 L170.07427,29.963243 C170.037304,29.8083273 169.783023,28.722985 169.018587,27.9475342 C168.436154,27.3663071 167.598988,26.9784915 166.543636,26.9784915 Z M80.0471416,19.6920997 L78.0521721,19.6920997 L78.0521721,26.7084792 L80.1625764,26.7084792 C80.9683961,26.7084792 82.3880249,26.6698029 83.3470865,25.7391056 C83.8849808,25.1967954 84.3065087,24.3050752 84.3065087,23.1811167 C84.3065087,22.0956842 83.9225474,21.203964 83.3470865,20.6615936 C82.4643603,19.8087301 81.1987548,19.6920997 80.0471416,19.6920997 L80.0471416,19.6920997 Z M152.919113,15.373437 C154.311483,15.373437 155.439895,16.5029293 155.439895,17.8958474 C155.439895,19.2886151 154.311483,20.4181073 152.919113,20.4181073 C151.527103,20.4181073 150.398931,19.2886151 150.398931,17.8958474 C150.398931,16.5029293 151.527103,15.373437 152.919113,15.373437 Z M39.8136183,1.36779477e-13 L40.1218452,9.0600278 L45.5230281,3.44910764 C44.0921594,6.67247323 43.3365287,9.83412516 43.4141264,12.9203192 C32.6175909,10.4089764 23.5193987,11.4336878 16.1521275,16.0603172 C15.6575099,12.923056 14.0746917,9.96678546 11.9341739,7.10350643 L11.9341739,7.10350643 L18.2097281,10.9643993 L16.9238667,3.39737885 L25.8738059,9.47172285 L26.336567,6.28023663 L28.2913552,0.360447448 L33.126604,8.13293952 L39.8136183,1.36779477e-13 Z" id="Combined-Shape-Copy" fill="#2F073B"/>
    </g>
</g>
  </g>
</g>
    <g transform="translate(180.0, -240.0) scale(1 1)"><g>
    <g transform="translate(0, 0) scale(13 13)" opacity="0.1"><title>premier-league/icon/premier-league_blanco</title>
    <g id="premier-league/icon/premier-league_blanco" stroke="none" stroke-width="1" fill="none" fill-rule="evenodd">
        <path d="M45.0215155,32.507556 C51.6644667,29.566774 57.8897286,28.024474 66.3378248,28.2052481 C68.6886686,29.1653466 71.3748891,30.9711747 72.6557064,33.2487334 C72.8835433,31.9313093 72.9830463,30.5104155 72.2242144,29.1101291 C76.4490012,30.1620762 80.4384551,32.1558604 84.2524723,34.8553817 C84.1939453,37.8397603 85.2501691,40.4523411 86.4309788,43.0224803 C83.0147573,39.8650148 79.5469284,36.9136223 75.8836613,34.7454159 C75.7970602,36.6007594 75.4047784,38.2198947 74.6600376,39.5803019 C72.1388025,37.3331308 68.4544167,35.4169399 66.3274096,34.5394872 C63.4319481,33.346537 54.9759955,37.7066609 53.8737142,40.1363383 L53.8737142,40.1363383 L56.2176026,40.8774074 L49.3401113,45.6648353 L53.2264582,46.0353698 L52.7325472,48.1975132 L53.6887273,48.0434456 C54.4230169,51.0224828 56.4907763,52.3748058 59.1170283,53.0467268 L59.1170283,53.0467268 L70.5897849,53.1087292 L72.5637715,53.7262266 L72.9954076,53.2325174 C71.6029784,50.8937864 69.6287034,49.0024252 67.1663197,47.4875535 C61.834098,47.8202298 58.1362337,47.4432351 56.0947105,44.8929454 C59.766771,42.0170529 63.1452959,41.3967766 67.968254,44.8621607 C69.5294167,44.8346242 70.8802212,43.8944834 72.1938697,42.7929127 C71.4011253,44.0826198 70.7856195,45.4158152 70.6519157,46.8702365 C72.8953641,48.4509 74.7400436,50.3956742 76.0793157,52.7998722 C79.2118401,51.8251573 82.7346281,51.6332315 86.6891244,52.3057659 C83.4985776,49.457374 80.8203217,46.6837602 78.8557412,43.5961646 L78.8557412,43.5961646 L82.9268949,46.0978774 C85.1616939,41.1980297 87.8722045,47.9060515 85.7022031,48.1046179 C86.2783547,49.3498262 87.1205443,50.4433489 88.3540787,51.3170121 C88.7573163,50.7294693 88.9381227,49.9691642 88.9711342,49.0934799 C96.893425,60.4489009 99.3278066,72.8028559 94.5836293,86.4648879 C93.9391122,84.6733874 93.0493515,83.3953012 91.4997212,83.4997813 C90.4303433,94.3270993 85.2089768,102.013048 77.0659486,107.404981 C76.9674547,105.403437 76.6093016,103.517381 75.7704997,101.845699 C65.0273476,109.416738 54.2841956,109.72693 43.54144,104.28559 C46.6645943,96.4425063 46.4634621,88.9023247 44.1578829,81.5539967 C41.1803972,86.8551636 37.2657598,91.5304602 32.3151165,95.5139143 C28.7534066,87.4144481 27.9813844,78.3291153 29.8471827,69.0760008 C27.7913881,70.805535 25.3859095,71.9796463 23,71.7321781 C23.4142655,64.0282207 26.5747919,57.4876559 31.2662446,51.5949762 L31.2662446,51.5949762 L26.8244684,50.9774788 C29.2006475,45.4072259 33.2693505,40.5901322 38.6061492,36.3377365 C38.1750536,42.3704809 39.4691692,46.0978774 42.4920997,47.5183381 C40.6801433,36.8965157 42.5774034,32.4015962 50.1408924,37.2644879 C49.3828172,34.7291394 47.7535052,33.0664436 45.0215155,32.507556 Z M84.2824205,69.7739064 L80.0876539,70.020761 C77.6935996,72.3505057 74.9881704,73.6936258 71.575697,74.4685472 L71.575697,74.4685472 L74.0434145,79.7187913 C76.7936759,79.5721943 79.0853801,78.3214643 81.0129849,76.1983701 C81.4911831,78.3589977 81.4103842,80.3996265 80.7356306,82.3129664 C85.0970044,81.7018207 88.7960219,71.6728464 84.2824205,69.7739064 L84.2824205,69.7739064 Z M77.0336579,56.3532434 C76.4028356,55.6625918 75.2570556,55.9055487 74.4432645,56.3532434 L74.4432645,56.3532434 L65.6837935,61.1709506 C65.0950645,61.4957593 64.5993154,62.2077761 64.8827962,62.7159935 L64.8827962,62.7159935 L68.9532291,70.0045206 C69.4028486,70.8096131 70.4260248,71.0253583 71.2972256,70.7455897 C75.067744,69.5358577 78.3390176,67.143028 81.2284245,63.951205 L81.2284245,63.951205 L81.2896183,59.1330647 C79.7115174,58.5094319 78.2421814,57.6771277 77.0336579,56.3532434 Z M88.0452626,56.4617656 L84.5297544,59.241623 L84.3646609,64.3948937 L88.4772952,69.6190448 C90.1288791,64.9453722 90.5062409,60.4760043 88.0452626,56.4617656 L88.0452626,56.4617656 Z M70.7429135,12 L71.112527,22.8720334 L77.5894115,16.1389292 C75.8735705,20.0069679 74.9674481,23.8009502 75.0605002,27.5043831 C62.1137226,24.4907717 51.203531,25.7204253 42.3689913,31.2723807 C41.7758655,27.5076672 39.8778126,23.9601426 37.3109885,20.5242077 L37.3109885,20.5242077 L44.8363845,25.1572792 L43.2944304,16.0768546 L54.0268429,23.3660674 L54.5817676,19.536284 L56.9258722,12.4325369 L62.724111,21.7595274 L70.7429135,12 Z" id="Combined-Shape" fill="#FFFFFF"/>
    </g>
</g>
  </g>
</g>
  </g>
</svg>
